<?xml version="1.0" encoding="UTF-8"?>
<svg id="Layer_2" data-name="Layer 2" xmlns="http://www.w3.org/2000/svg" viewBox="0 0 832 525.71">
  <defs>
    <style>
      .cls-1 {
        fill: #008f42;
      }

      .cls-1, .cls-2 {
        fill-rule: evenodd;
      }

      .cls-2 {
        fill: #0063a0;
      }
    </style>
  </defs>
  <g id="Layer_1-2" data-name="Layer 1">
    <g>
      <polygon class="cls-1" points="145.63 123.96 192.38 77.68 169 524.07 162.07 524.07 145.63 123.96"/>
      <polygon class="cls-1" points="95.67 211.79 129.33 175.04 115.63 524.24 106.16 524.24 95.67 211.79"/>
      <polygon class="cls-1" points="42.57 307.15 76.57 273.97 64.39 525.71 55.86 525.71 42.57 307.15"/>
      <path class="cls-2" d="M.17,115.93c0,19.48,0,38.96-.17,58.44,333.93-292.82,435.04-24.03,6.93,189.16C475.36,240.41,410.15-209.38,.17,115.93"/>
      <path class="cls-2" d="M825.61,418.2l.75,30.3h-2.74c-1.29-7.62-4.47-13.72-9.56-18.37-5.07-4.61-10.55-6.93-16.45-6.93-4.54,0-8.15,1.2-10.82,3.65-2.67,2.41-4,5.23-4,8.42,0,1.99,.47,3.81,1.42,5.36,1.28,2.11,3.37,4.18,6.23,6.22,2.09,1.49,6.94,4.11,14.53,7.85,10.65,5.24,17.81,10.18,21.53,14.82,3.67,4.65,5.5,9.97,5.5,15.94,0,7.6-2.98,14.15-8.89,19.61-5.92,5.46-13.44,8.21-22.56,8.21-2.85,0-5.58-.28-8.13-.86-2.52-.6-5.73-1.68-9.59-3.3-2.15-.89-3.9-1.33-5.27-1.33-1.16,0-2.39,.44-3.7,1.33-1.29,.89-2.36,2.27-3.15,4.1h-2.48v-34.32h2.48c1.96,9.65,5.75,16.99,11.39,22.07,5.59,5.07,11.62,7.61,18.1,7.61,5,0,9-1.36,11.97-4.09,2.97-2.72,4.47-5.88,4.47-9.51,0-2.15-.57-4.23-1.72-6.24-1.13-2.01-2.87-3.92-5.2-5.72-2.32-1.81-6.42-4.16-12.33-7.07-8.27-4.08-14.2-7.53-17.83-10.4-3.63-2.85-6.39-6.06-8.34-9.58-1.96-3.53-2.95-7.4-2.95-11.67,0-7.21,2.69-13.39,8-18.51,5.33-5.06,12.04-7.61,20.12-7.61,2.94,0,5.8,.36,8.57,1.05,2.12,.55,4.67,1.53,7.67,3,3.02,1.44,5.16,2.16,6.33,2.16s2.11-.35,2.75-1.05c.69-.73,1.3-2.44,1.89-5.17h1.99Zm-117.42,5.09c-8.33,0-14.65,4.25-18.99,12.74-3.54,6.95-5.29,16.98-5.29,30.01,0,15.51,2.71,26.97,8.17,34.38,3.78,5.2,9.11,7.79,15.97,7.79,4.61,0,8.46-1.12,11.54-3.35,3.91-2.86,6.97-7.44,9.19-13.73,2.18-6.26,3.3-14.45,3.3-24.54,0-12.02-1.15-21.02-3.38-26.97-2.25-5.97-5.07-10.18-8.56-12.66-3.44-2.45-7.44-3.67-11.94-3.67m-.83-4.3c14.49-.55,26.26,3.7,35.31,12.68,9.03,8.98,13.56,20.21,13.56,33.71,0,11.52-3.35,21.68-10.1,30.43-8.96,11.62-21.58,17.43-37.89,17.43s-29.01-5.54-37.94-16.63c-7.05-8.76-10.58-19.15-10.58-31.16,0-13.49,4.59-24.76,13.76-33.74,9.2-9.02,20.47-13.26,33.88-12.71m-115.67,6.16v39.8h3.83c6.21,0,10.83-.52,13.92-1.68,3.1-1.15,5.53-3.2,7.27-6.18,1.78-2.97,2.67-6.83,2.67-11.62,0-6.92-1.62-12.04-4.87-15.34-3.21-3.32-8.44-4.98-15.65-4.98h-7.15Zm0,44.56v25.49c0,4.91,.3,8,.89,9.27,.6,1.28,1.68,2.32,3.18,3.07,1.53,.76,4.37,1.14,8.53,1.14v2.47h-46.53v-2.47c4.21,0,7.04-.38,8.54-1.19,1.5-.78,2.57-1.77,3.18-3.03,.59-1.27,.89-4.34,.89-9.25v-58.98c0-4.92-.3-8-.89-9.28-.62-1.29-1.68-2.29-3.2-3.05-1.52-.79-4.37-1.15-8.53-1.15v-2.49h42.25c10.99,0,19.02,.78,24.12,2.29,5.06,1.52,9.24,4.32,12.47,8.43,3.2,4.06,4.84,8.87,4.84,14.37,0,6.69-2.44,12.23-7.27,16.63-3.1,2.77-7.39,4.83-12.93,6.21l21.86,30.79c2.87,3.96,4.89,6.44,6.08,7.41,1.86,1.41,3.96,2.16,6.39,2.29v2.47h-28.63l-29.28-41.43h-5.96Zm-80.8,10.58l-13.53-31.28-13.93,31.28h27.46Zm2.31,4.97h-32.12l-3.81,8.87c-1.26,2.95-1.88,5.37-1.88,7.3,0,2.56,1.02,4.41,3.08,5.61,1.18,.74,4.17,1.25,8.9,1.62v2.47h-30.21v-2.47c3.24-.5,5.95-1.84,8.03-4.06,2.11-2.2,4.72-6.78,7.77-13.71l32.52-72.53h1.28l32.78,74.55c3.14,7.04,5.7,11.5,7.7,13.34,1.53,1.38,3.7,2.18,6.45,2.41v2.47h-43.95v-2.47h1.81c3.51,0,6-.5,7.42-1.48,1-.71,1.49-1.76,1.49-3.1,0-.8-.14-1.63-.4-2.47-.09-.41-.76-2.08-2.02-5.02l-4.82-11.34Zm-126.36-17.83v28.16c0,4.64,.24,7.55,.77,8.71,.53,1.16,1.52,2.17,3.01,3.02,1.52,.91,3.53,1.33,6.06,1.33h3.02v2.47h-47.52v-2.47h3.01c2.64,0,4.76-.47,6.35-1.4,1.19-.61,2.09-1.7,2.71-3.22,.5-1.05,.75-3.87,.75-8.44v-59.78c0-4.66-.24-7.57-.75-8.72-.5-1.17-1.49-2.16-3-3.04-1.48-.88-3.51-1.32-6.06-1.32h-3.01v-2.49h47.52v2.49h-3.02c-2.62,0-4.76,.47-6.36,1.4-1.16,.63-2.08,1.69-2.74,3.22-.52,1.09-.74,3.89-.74,8.46v25.73h32.1v-25.73c0-4.66-.26-7.57-.72-8.72-.52-1.17-1.52-2.16-3.02-3.04-1.55-.88-3.55-1.32-6.13-1.32h-2.92v-2.49h47.47v2.49h-2.94c-2.68,0-4.82,.47-6.39,1.4-1.16,.63-2.06,1.69-2.74,3.22-.5,1.09-.73,3.89-.73,8.46v59.78c0,4.64,.23,7.55,.73,8.71,.49,1.16,1.5,2.17,3.01,3.02,1.53,.91,3.54,1.33,6.12,1.33h2.94v2.47h-47.47v-2.47h2.92c2.69,0,4.82-.47,6.41-1.4,1.13-.61,2.06-1.7,2.75-3.22,.46-1.05,.72-3.87,.72-8.44v-28.16h-32.1Zm-84.31-41.94v39.29c1.48,.09,2.58,.11,3.35,.11,5.45,0,9.63-1.61,12.58-4.86,2.94-3.22,4.43-8.26,4.43-15.05s-1.49-11.67-4.43-14.8c-2.95-3.15-7.34-4.69-13.2-4.69h-2.74Zm0,44.49v25.22c0,4.91,.29,8,.9,9.27,.6,1.28,1.68,2.32,3.21,3.07,1.56,.76,4.37,1.14,8.48,1.14v2.47h-46.2v-2.47c4.23,0,7.06-.38,8.57-1.19,1.48-.78,2.54-1.77,3.14-3.03,.6-1.27,.9-4.34,.9-9.25v-58.98c0-4.92-.3-8-.9-9.28-.6-1.29-1.66-2.29-3.2-3.05-1.49-.79-4.34-1.15-8.51-1.15v-2.49h39.64c13.04,0,22.39,2.34,28.08,6.98,5.67,4.66,8.51,10.46,8.51,17.45,0,5.88-1.83,10.93-5.5,15.13-3.65,4.18-8.71,7.04-15.15,8.58-4.33,1.07-11.67,1.59-21.97,1.59"/>
    </g>
  </g>
</svg>